<svg width="191" height="87" viewBox="0 0 191 87" fill="none" xmlns="http://www.w3.org/2000/svg">
<g clip-path="url(#clip0_33729_898)">
<path d="M53.98 44.41L18.62 86.21C18.12 86.79 17.16 86.33 17.33 85.59L27.07 43.23H53.4C54.02 43.23 54.36 43.94 53.97 44.41H53.98Z" fill="black"/>
<path d="M36.82 0.880014L27.08 43.23H0.740046C0.110046 43.23 -0.229954 42.52 0.170046 42.05L35.53 0.260014C36.03 -0.319986 36.99 0.140014 36.82 0.880014Z" fill="black"/>
<path d="M72.56 44.58C70.92 44.58 69.38 44.27 67.96 43.66C66.54 43.05 65.32 42.2 64.3 41.11C63.28 40.02 62.52 38.74 62.03 37.29L66.05 35.56C66.68 37.06 67.6 38.24 68.8 39.1C70 39.96 71.35 40.39 72.85 40.39C73.7 40.39 74.43 40.26 75.05 39.98C75.67 39.71 76.15 39.34 76.49 38.87C76.83 38.4 77 37.84 77 37.18C77 36.41 76.77 35.77 76.31 35.28C75.85 34.79 75.17 34.39 74.25 34.08L69.21 32.46C67.17 31.83 65.62 30.88 64.58 29.62C63.54 28.36 63.01 26.87 63.01 25.13C63.01 23.63 63.39 22.3 64.14 21.15C64.89 20 65.93 19.1 67.26 18.46C68.59 17.81 70.11 17.49 71.82 17.49C73.39 17.49 74.84 17.77 76.15 18.32C77.46 18.87 78.6 19.64 79.55 20.61C80.5 21.58 81.21 22.73 81.68 24.04L77.7 25.8C77.21 24.51 76.44 23.5 75.39 22.77C74.34 22.04 73.15 21.68 71.81 21.68C71.01 21.68 70.31 21.82 69.7 22.09C69.09 22.36 68.61 22.74 68.27 23.23C67.93 23.72 67.76 24.29 67.76 24.92C67.76 25.65 67.99 26.29 68.46 26.84C68.93 27.39 69.65 27.82 70.61 28.13L75.44 29.64C77.53 30.32 79.1 31.26 80.14 32.46C81.18 33.66 81.71 35.14 81.71 36.9C81.71 38.4 81.32 39.73 80.55 40.88C79.78 42.03 78.71 42.93 77.34 43.59C75.97 44.25 74.38 44.58 72.55 44.58H72.56Z" fill="black"/>
<path d="M99.2101 27.85C98.5401 26.82 97.6101 26.01 96.4101 25.44C95.2101 24.86 93.8301 24.58 92.2501 24.58C90.9601 24.58 89.7701 24.79 88.6601 25.21C87.5601 25.63 86.6001 26.21 85.7901 26.95C84.9801 27.69 84.3901 28.57 84.0101 29.58L87.7801 31.41C88.1301 30.56 88.6901 29.87 89.4501 29.33C90.2201 28.79 91.0901 28.52 92.0801 28.52C93.1401 28.52 93.9801 28.8 94.6101 29.35C95.2501 29.9 95.5701 30.59 95.5701 31.41V32.03L89.8901 32.96C88.3901 33.19 87.1501 33.59 86.1601 34.16C85.1701 34.72 84.4401 35.42 83.9601 36.25C83.4801 37.08 83.2401 38.03 83.2401 39.09C83.2401 40.15 83.5101 41.16 84.0501 41.99C84.5901 42.83 85.3601 43.47 86.3501 43.91C87.3501 44.36 88.5201 44.58 89.8601 44.58C90.9201 44.58 91.8701 44.44 92.7301 44.16C93.5901 43.88 94.3601 43.46 95.0601 42.89C95.3401 42.66 95.6101 42.41 95.8501 42.14V44.16H100.22V31.41C100.22 30.07 99.8801 28.88 99.2101 27.85ZM95.5701 36.37C95.5701 37.22 95.3701 38.01 94.9701 38.73C94.5701 39.46 94.0001 40.03 93.2601 40.44C92.5201 40.85 91.6701 41.06 90.7101 41.06C89.9501 41.06 89.3301 40.87 88.8201 40.48C88.3101 40.09 88.0601 39.57 88.0601 38.91C88.0601 38.25 88.2901 37.68 88.7301 37.27C89.1801 36.86 89.8601 36.57 90.7801 36.41L95.5701 35.56V36.37Z" fill="black"/>
<path d="M119.41 25L111.87 44.16H107.79L100.25 25H105.29L109.82 37.5L114.37 25H119.41Z" fill="black"/>
<path d="M136.92 30.33C136.5 29.22 135.88 28.23 135.09 27.36C134.29 26.49 133.32 25.81 132.18 25.31C131.04 24.82 129.72 24.58 128.22 24.58C126.41 24.58 124.79 25.01 123.36 25.88C121.92 26.75 120.79 27.93 119.94 29.42C119.09 30.91 118.67 32.62 118.67 34.54C118.67 36.46 119.08 38.09 119.9 39.62C120.73 41.14 121.88 42.35 123.37 43.24C124.87 44.14 126.6 44.58 128.57 44.58C129.86 44.58 131.06 44.38 132.16 43.98C133.27 43.58 134.22 43.03 135.02 42.33C135.81 41.62 136.4 40.81 136.78 39.9L133.04 38.07C132.62 38.82 132.04 39.42 131.3 39.86C130.56 40.31 129.66 40.53 128.6 40.53C127.54 40.53 126.61 40.28 125.8 39.79C124.99 39.3 124.38 38.6 123.97 37.7C123.72 37.16 123.57 36.56 123.5 35.92H137.31C137.4 35.63 137.46 35.32 137.5 34.98C137.53 34.64 137.55 34.3 137.55 33.94C137.55 32.65 137.34 31.45 136.92 30.33ZM123.94 31.23C124.33 30.32 124.89 29.61 125.65 29.12C126.4 28.63 127.25 28.38 128.22 28.38C129.19 28.38 130.09 28.63 130.81 29.12C131.52 29.61 132.04 30.28 132.36 31.13C132.5 31.51 132.59 31.92 132.61 32.36H123.61C123.68 31.96 123.79 31.58 123.94 31.23Z" fill="black"/>
<path d="M168.48 17.92V44.16H163.65V26.32L155.55 37.11H154.99L146.85 25.99V44.16H142.02V17.92H146.64L155.36 29.77L163.9 17.92H168.48Z" fill="black"/>
<path d="M190.53 25L182.18 46.1C181.69 47.34 181.09 48.4 180.38 49.27C179.68 50.13 178.86 50.8 177.93 51.27C177.01 51.74 175.94 51.98 174.75 51.98C174.23 51.98 173.73 51.93 173.23 51.84C172.74 51.74 172.29 51.6 171.89 51.41V47.54C172.2 47.61 172.57 47.68 173 47.75C173.44 47.82 173.84 47.86 174.22 47.86C175.28 47.86 176.04 47.61 176.53 47.12C177.01 46.62 177.44 45.98 177.81 45.18L178.24 44.17L170.66 25H175.63L180.59 38.21L185.53 25H190.53Z" fill="black"/>
<path d="M63.19 73.15V46.91H80.6601V51.14H68.0101V57.87H79.95V62.13H68.0101V68.93H80.6601V73.16H63.19V73.15Z" fill="black"/>
<path d="M93.52 63.54L100.18 73.16H94.79L90.79 67.21L86.79 73.16H81.37L88.06 63.54L81.34 54H86.76L90.8 59.96L94.83 54H100.22L93.52 63.54Z" fill="black"/>
<path d="M116.15 56.85C115.48 55.82 114.55 55.01 113.35 54.44C112.16 53.86 110.77 53.58 109.2 53.58C107.91 53.58 106.71 53.79 105.6 54.21C104.5 54.63 103.54 55.21 102.73 55.95C101.92 56.69 101.33 57.57 100.96 58.58L104.72 60.41C105.08 59.56 105.63 58.87 106.4 58.33C107.16 57.79 108.04 57.52 109.02 57.52C110.08 57.52 110.92 57.8 111.56 58.35C112.19 58.9 112.51 59.59 112.51 60.41V61.03L106.84 61.96C105.33 62.19 104.09 62.59 103.1 63.16C102.12 63.72 101.38 64.42 100.9 65.25C100.42 66.08 100.18 67.03 100.18 68.09C100.18 69.15 100.45 70.16 100.99 70.99C101.53 71.83 102.3 72.47 103.3 72.91C104.3 73.36 105.46 73.58 106.8 73.58C107.86 73.58 108.82 73.44 109.67 73.16C110.53 72.88 111.31 72.46 112 71.89C112.28 71.66 112.55 71.41 112.79 71.14V73.16H117.16V60.41C117.16 59.07 116.82 57.88 116.15 56.85ZM112.51 65.37C112.51 66.22 112.31 67.01 111.91 67.73C111.51 68.46 110.94 69.03 110.2 69.44C109.46 69.85 108.61 70.06 107.65 70.06C106.9 70.06 106.27 69.87 105.76 69.48C105.26 69.09 105.01 68.57 105.01 67.91C105.01 67.25 105.23 66.68 105.68 66.27C106.12 65.86 106.8 65.57 107.72 65.41L112.51 64.56V65.37Z" fill="black"/>
<path d="M148.65 60.83V73.16H144.03V61.92C144.03 61.08 143.88 60.35 143.58 59.74C143.27 59.13 142.84 58.66 142.29 58.33C141.74 58 141.09 57.84 140.33 57.84C139.61 57.84 138.96 58 138.4 58.33C137.83 58.66 137.4 59.13 137.09 59.74C136.79 60.35 136.64 61.08 136.64 61.92V73.16H132.02V61.92C132.02 61.08 131.87 60.35 131.56 59.74C131.26 59.13 130.83 58.66 130.28 58.33C129.73 58 129.07 57.84 128.32 57.84C127.57 57.84 126.95 58 126.39 58.33C125.82 58.66 125.39 59.13 125.08 59.74C124.78 60.35 124.62 61.08 124.62 61.92V73.16H119.98V54H124.34V56.4C124.73 55.64 125.27 55.04 125.96 54.6C127.02 53.91 128.26 53.58 129.7 53.58C131.27 53.58 132.66 53.99 133.85 54.81C134.61 55.33 135.2 55.95 135.62 56.67C136.13 55.86 136.76 55.21 137.52 54.72C138.69 53.96 140.04 53.58 141.57 53.58C142.93 53.58 144.14 53.88 145.21 54.49C146.28 55.1 147.12 55.95 147.73 57.04C148.34 58.14 148.65 59.4 148.65 60.83Z" fill="black"/>
<path d="M158.44 73.58C156.4 73.58 154.62 73.09 153.1 72.12C151.58 71.15 150.53 69.83 149.95 68.16L153.44 66.5C153.93 67.58 154.62 68.43 155.5 69.04C156.38 69.65 157.36 69.96 158.44 69.96C159.26 69.96 159.92 69.77 160.41 69.4C160.9 69.03 161.15 68.53 161.15 67.92C161.15 67.54 161.05 67.23 160.85 66.99C160.65 66.74 160.39 66.53 160.06 66.36C159.73 66.18 159.36 66.04 158.93 65.92L155.8 65.04C154.2 64.59 152.99 63.88 152.15 62.91C151.31 61.94 150.9 60.79 150.9 59.48C150.9 58.31 151.2 57.28 151.8 56.4C152.4 55.52 153.23 54.83 154.3 54.34C155.37 53.85 156.59 53.6 157.98 53.6C159.79 53.6 161.38 54.03 162.77 54.9C164.16 55.77 165.14 56.99 165.73 58.56L162.21 60.22C161.88 59.35 161.33 58.66 160.55 58.16C159.77 57.66 158.91 57.4 157.94 57.4C157.17 57.4 156.55 57.57 156.11 57.91C155.66 58.25 155.44 58.71 155.44 59.3C155.44 59.63 155.53 59.92 155.72 60.18C155.91 60.44 156.17 60.65 156.51 60.81C156.85 60.97 157.24 61.13 157.69 61.27L160.75 62.19C162.32 62.66 163.54 63.36 164.4 64.3C165.26 65.24 165.69 66.39 165.69 67.75C165.69 68.9 165.38 69.92 164.77 70.8C164.16 71.68 163.31 72.37 162.23 72.86C161.15 73.35 159.88 73.6 158.43 73.6L158.44 73.58Z" fill="black"/>
</g>
<defs>
<clipPath id="clip0_33729_898">
<rect width="190.53" height="86.47" fill="white"/>
</clipPath>
</defs>
</svg>
